<?xml version="1.0" encoding="UTF-8"?>
<svg width="29.568mm" height="29.896mm" version="1.1" viewBox="0 0 29.568 29.896" xmlns="http://www.w3.org/2000/svg" xmlns:cc="http://creativecommons.org/ns#"
     xmlns:dc="http://purl.org/dc/elements/1.1/" xmlns:rdf="http://www.w3.org/1999/02/22-rdf-syntax-ns#">
    <metadata>
        <rdf:RDF>
            <cc:Work rdf:about="">
                <dc:format>image/svg+xml</dc:format>
                <dc:type rdf:resource="http://purl.org/dc/dcmitype/StillImage"/>
                <dc:title/>
            </cc:Work>
        </rdf:RDF>
    </metadata>
    <g transform="translate(-59.515 -113.4)">
        <g transform="translate(-8.221 -1.9844)">
            <path transform="scale(.26458)" d="m346.95 442.88a63.268 63.268 0 0 1-35.068 10.664 63.268 63.268 0 0 1-35.076-10.654l-14.924 22.387 50 75 50-75z" fill="#0a8"
                  stroke="#054" stroke-linecap="round" stroke-width="9.7777" style="paint-order:stroke fill markers"/>
            <g fill-opacity=".19608">
                <path transform="scale(.26458)" d="m276.81 442.89-14.924 22.387 50 75-20.014-90.059a63.268 63.268 0 0 1-15.062-7.3281z" fill="#fff"/>
                <path transform="scale(.26458)" d="m346.95 442.88a63.268 63.268 0 0 1-15.049 7.3106l-20.02 90.086 50-75z"/>
                <path transform="scale(.26458)" d="m331.9 450.19a63.268 63.268 0 0 1-20.02 3.3535 63.268 63.268 0 0 1-20.014-3.3262l20.014 90.059z" fill="#808080"/>
            </g>
        </g>
    </g>
</svg>
